<svg xmlns="http://www.w3.org/2000/svg" viewBox="0 0 800 500" fill="none">
  <rect width="800" height="500" fill="#f6f7f7"/>
  <rect width="800" height="32" fill="#1d2327"/>
  <circle cx="24" cy="16" r="8" fill="#2271b1"/>
  <rect x="44" y="12" width="80" height="8" rx="2" fill="#fff" opacity="0.35"/>
  <rect x="680" y="12" width="96" height="8" rx="2" fill="#fff" opacity="0.2"/>
  <rect x="48" y="72" width="120" height="14" rx="3" fill="#2271b1" opacity="0.85"/>
  <rect x="620" y="70" width="56" height="10" rx="2" fill="#8c8f94" opacity="0.35"/>
  <rect x="688" y="70" width="56" height="10" rx="2" fill="#8c8f94" opacity="0.35"/>
  <rect x="48" y="120" width="420" height="36" rx="4" fill="#1d2327" opacity="0.9"/>
  <rect x="48" y="168" width="340" height="10" rx="2" fill="#8c8f94" opacity="0.35"/>
  <rect x="48" y="188" width="280" height="10" rx="2" fill="#8c8f94" opacity="0.25"/>
  <rect x="48" y="230" width="120" height="36" rx="6" fill="#2271b1"/>
  <rect x="500" y="110" width="252" height="180" rx="12" fill="#e8ecef"/>
  <rect x="48" y="320" width="704" height="1" fill="#1d2327" opacity="0.08"/>
  <rect x="48" y="350" width="210" height="120" rx="8" fill="#fff" stroke="#dcdcde"/>
  <rect x="280" y="350" width="210" height="120" rx="8" fill="#fff" stroke="#dcdcde"/>
  <rect x="512" y="350" width="240" height="120" rx="8" fill="#fff" stroke="#dcdcde"/>
  <rect x="68" y="372" width="80" height="8" rx="2" fill="#2271b1" opacity="0.5"/>
  <rect x="68" y="392" width="150" height="10" rx="2" fill="#1d2327" opacity="0.65"/>
  <rect x="68" y="412" width="170" height="6" rx="1" fill="#8c8f94" opacity="0.35"/>
</svg>
