<svg xmlns="http://www.w3.org/2000/svg" viewBox="0 0 800 500" fill="none">
  <rect width="800" height="500" fill="#080808"/>
  <circle cx="650" cy="80" r="120" fill="#c4a574" opacity="0.08"/>
  <rect x="48" y="48" width="80" height="6" rx="1" fill="#c4a574" opacity="0.6"/>
  <rect x="680" y="50" width="60" height="4" rx="1" fill="#8a8278" opacity="0.5"/>
  <text x="48" y="160" font-family="Georgia,serif" font-size="56" font-style="italic" fill="#c4a574">Maison</text>
  <text x="48" y="220" font-family="Georgia,serif" font-size="48" fill="#f0ebe3">&amp; Partners</text>
  <rect x="48" y="250" width="320" height="8" rx="2" fill="#8a8278" opacity="0.4"/>
  <rect x="48" y="270" width="260" height="6" rx="2" fill="#8a8278" opacity="0.25"/>
  <rect x="48" y="340" width="704" height="1" fill="#f0ebe3" opacity="0.08"/>
  <rect x="48" y="370" width="210" height="90" fill="#111" stroke="#f0ebe3" stroke-opacity="0.06"/>
  <rect x="280" y="370" width="210" height="90" fill="#111" stroke="#f0ebe3" stroke-opacity="0.06"/>
  <rect x="512" y="370" width="240" height="90" fill="#c4a574" opacity="0.12" stroke="#c4a574" stroke-opacity="0.25"/>
  <rect x="68" y="392" width="24" height="4" rx="1" fill="#c4a574" opacity="0.7"/>
  <rect x="68" y="410" width="100" height="8" rx="2" fill="#f0ebe3" opacity="0.7"/>
  <rect x="68" y="430" width="140" height="5" rx="1" fill="#8a8278" opacity="0.4"/>
</svg>
