<svg xmlns="http://www.w3.org/2000/svg" viewBox="0 0 800 500" fill="none">
  <rect width="800" height="500" fill="#f7f3ee"/>
  <rect x="0" y="41" width="800" height="56" fill="#fff" stroke="#e8dfd4"/>
  <text x="32" y="78" font-family="Georgia,serif" font-size="22" font-weight="600" letter-spacing="6" fill="#6b1d2a">VINUM</text>
  <rect x="640" y="60" width="128" height="24" rx="2" fill="#fff" stroke="#e8dfd4"/>
  <rect x="0" y="97" width="800" height="120" fill="rgba(107,29,42,0.06)"/>
  <text x="400" y="150" text-anchor="middle" font-family="Georgia,serif" font-size="32" font-weight="500" fill="#2c1810">8=> A 8AB>@859</text>
  <rect x="280" y="170" width="240" height="8" rx="2" fill="#7a6658" opacity="0.3"/>
  <rect x="32" y="240" width="736" height="220" rx="12" fill="#fff" stroke="#e8dfd4"/>
  <rect x="52" y="260" width="220" height="180" rx="4" fill="#fff" stroke="#e8dfd4"/>
  <rect x="52" y="260" width="220" height="100" rx="4" fill="#6b1d2a"/>
  <rect x="292" y="260" width="220" height="180" rx="4" fill="#fff" stroke="#e8dfd4"/>
  <rect x="292" y="260" width="220" height="100" rx="4" fill="#8b3040"/>
  <rect x="532" y="260" width="216" height="180" rx="4" fill="#fff" stroke="#e8dfd4"/>
  <rect x="532" y="260" width="216" height="100" rx="4" fill="#c9b896"/>
  <rect x="64" y="378" width="80" height="10" rx="2" fill="#6b1d2a"/>
  <circle cx="240" cy="412" r="14" fill="#6b1d2a"/>
</svg>
