<svg xmlns="http://www.w3.org/2000/svg" viewBox="0 0 800 500" fill="none">
  <rect width="800" height="500" fill="#0e1621"/>
  <rect x="280" y="40" width="240" height="420" rx="28" fill="#17212b" stroke="#2b5278" stroke-width="2"/>
  <rect x="296" y="72" width="208" height="44" rx="8" fill="#242f3d"/>
  <circle cx="316" cy="94" r="12" fill="#2aabee"/>
  <rect x="336" y="86" width="80" height="8" rx="2" fill="#fff" opacity="0.85"/>
  <rect x="336" y="100" width="48" height="5" rx="1" fill="#708499"/>
  <rect x="304" y="132" width="148" height="36" rx="12" fill="#182533"/>
  <rect x="316" y="144" width="120" height="6" rx="2" fill="#708499" opacity="0.8"/>
  <rect x="316" y="154" width="90" height="5" rx="1" fill="#708499" opacity="0.5"/>
  <rect x="368" y="188" width="128" height="52" rx="12" fill="#2b5278"/>
  <rect x="380" y="202" width="96" height="6" rx="2" fill="#fff" opacity="0.9"/>
  <rect x="380" y="214" width="72" height="5" rx="1" fill="#fff" opacity="0.55"/>
  <rect x="380" y="224" width="84" height="5" rx="1" fill="#fff" opacity="0.4"/>
  <rect x="304" y="256" width="168" height="36" rx="12" fill="#182533"/>
  <rect x="304" y="308" width="192" height="88" rx="12" fill="#242f3d"/>
  <rect x="316" y="322" width="72" height="24" rx="6" fill="#2aabee" opacity="0.25"/>
  <rect x="316" y="354" width="88" height="24" rx="6" fill="#2aabee" opacity="0.25"/>
  <rect x="412" y="322" width="72" height="24" rx="6" fill="#2aabee" opacity="0.25"/>
  <rect x="412" y="354" width="96" height="24" rx="6" fill="#2aabee" opacity="0.25"/>
  <rect x="296" y="408" width="208" height="36" rx="18" fill="#242f3d"/>
  <rect x="308" y="420" width="120" height="8" rx="2" fill="#708499" opacity="0.35"/>
  <circle cx="480" cy="428" r="10" fill="#2aabee"/>
  <rect x="48" y="120" width="180" height="120" rx="10" fill="#17212b" stroke="#2b5278"/>
  <rect x="64" y="140" width="100" height="8" rx="2" fill="#6ab2f2"/>
  <rect x="64" y="158" width="140" height="6" rx="1" fill="#708499" opacity="0.5"/>
  <rect x="64" y="172" width="120" height="6" rx="1" fill="#708499" opacity="0.35"/>
  <rect x="64" y="196" width="80" height="20" rx="4" fill="#2b5278"/>
  <rect x="572" y="120" width="180" height="160" rx="10" fill="#17212b" stroke="#2b5278"/>
  <rect x="588" y="140" width="120" height="8" rx="2" fill="#fff" opacity="0.7"/>
  <rect x="588" y="158" width="148" height="48" rx="8" fill="#242f3d"/>
  <rect x="600" y="170" width="120" height="6" rx="1" fill="#708499"/>
  <rect x="600" y="182" width="90" height="5" rx="1" fill="#708499" opacity="0.5"/>
  <rect x="588" y="220" width="148" height="48" rx="8" fill="#1e3a2f" stroke="#3d9970" stroke-opacity="0.4"/>
  <rect x="600" y="232" width="100" height="6" rx="1" fill="#7dcea0"/>
  <rect x="600" y="244" width="120" height="5" rx="1" fill="#7dcea0" opacity="0.6"/>
</svg>
